<svg xmlns="http://www.w3.org/2000/svg" width="97.13" height="97.552" viewBox="0 0 97.13 97.552">
  <g id="Group_479" data-name="Group 479" transform="translate(0)">
    <g id="_010-exam" data-name="010-exam" transform="translate(0 0)">
      <path id="Path_600" data-name="Path 600" d="M222.054,27.954a1.429,1.429,0,0,0,1.429-1.429V18.635a1.429,1.429,0,0,0-.418-1.01L205.859.419A1.429,1.429,0,0,0,204.848,0H159.109a3.287,3.287,0,0,0-3.283,3.283V94.268a3.287,3.287,0,0,0,3.283,3.283H220.2a3.287,3.287,0,0,0,3.283-3.283V32.614a1.429,1.429,0,0,0-2.857,0V94.268a.426.426,0,0,1-.426.426H159.109a.426.426,0,0,1-.426-.426V3.283a.426.426,0,0,1,.426-.426h44.248V15.441A4.565,4.565,0,0,0,207.916,20h12.71v6.525A1.428,1.428,0,0,0,222.054,27.954Zm-15.84-12.513V4.815l12.328,12.328H207.916A1.7,1.7,0,0,1,206.214,15.441Z" transform="translate(-126.353 0)" fill="#b5ffea"/>
      <path id="Path_601" data-name="Path 601" d="M227.911,36.467a1.429,1.429,0,1,0,0-2.857H197.2a2.3,2.3,0,0,0-2.295,2.295V50.457a2.3,2.3,0,0,0,2.295,2.295h37.506a1.429,1.429,0,1,0,0-2.857H197.765V36.467Z" transform="translate(-157.991 -27.208)" fill="#b5ffea"/>
      <path id="Path_602" data-name="Path 602" d="M192.108,173.893a1.428,1.428,0,0,0,.462,1.967l2.1,1.3a1.428,1.428,0,0,0,1.89-.351l4.4-5.8a1.429,1.429,0,0,0-2.276-1.727l-3.616,4.765-1-.619a1.429,1.429,0,0,0-1.967.462Z" transform="translate(-155.55 -136.579)" fill="#f10505"/>
      <path id="Path_603" data-name="Path 603" d="M291.437,189.817H254.6a1.429,1.429,0,1,0,0,2.857h36.836a1.429,1.429,0,0,0,0-2.857Z" transform="translate(-205.156 -153.658)" fill="#b5ffea"/>
      <path id="Path_604" data-name="Path 604" d="M192.57,237.159l2.1,1.3a1.428,1.428,0,0,0,1.89-.351l4.4-5.8a1.429,1.429,0,1,0-2.276-1.727l-3.616,4.765-1-.619a1.429,1.429,0,0,0-1.5,2.429Z" transform="translate(-155.55 -186.202)" fill="#f10505"/>
      <path id="Path_611" data-name="Path 611" d="M192.62,237.68l2.258,1.4a1.532,1.532,0,0,0,2.028-.377l4.722-6.224a1.533,1.533,0,1,0-2.442-1.853l-3.879,5.113-1.073-.664a1.533,1.533,0,0,0-1.614,2.606Z" transform="translate(-135.545 -161.611)" fill="#f10505"/>
      <path id="Path_605" data-name="Path 605" d="M292.866,252.545a1.429,1.429,0,0,0-1.429-1.429H254.6a1.429,1.429,0,0,0,0,2.857h36.836A1.429,1.429,0,0,0,292.866,252.545Z" transform="translate(-205.156 -203.281)" fill="#b5ffea"/>
      <path id="Path_606" data-name="Path 606" d="M249.629,324.237a14.4,14.4,0,1,0-7.075-26.944,1.227,1.227,0,1,0,1.207,2.136,11.956,11.956,0,1,1-3.627,3.157,1.227,1.227,0,1,0-1.948-1.491,14.268,14.268,0,0,0-2.959,8.741A14.418,14.418,0,0,0,249.629,324.237Z" transform="translate(-188.256 -236.783)" fill="#b5ffea"/>
      <path id="Path_608" data-name="Path 608" d="M20.886,48.99v-2.2a5.177,5.177,0,0,0-10.354,0v2.2a5.824,5.824,0,0,0-3.085,5.135V54.9L2.633,58.742A4.031,4.031,0,0,0,1.107,61.91V81.832a1.429,1.429,0,0,0,2.857,0V61.91a1.189,1.189,0,0,1,.45-.934l3.032-2.418v50.979a1.429,1.429,0,0,0,.252.81l6.029,8.754a2.4,2.4,0,0,0,1.981,1.041h0A2.4,2.4,0,0,0,17.69,119.1l6.029-8.754a1.43,1.43,0,0,0,.252-.81v-9.09a1.429,1.429,0,0,0-2.857,0v6.367H10.3V88.544h10.81V94.36a1.429,1.429,0,0,0,2.857,0V54.126A5.825,5.825,0,0,0,20.886,48.99Zm-7.5-2.2a2.32,2.32,0,0,1,4.64,0v1.516h-4.64Zm-.122,4.373h4.885a2.966,2.966,0,0,1,2.963,2.963v3.14H10.3v-3.14A2.966,2.966,0,0,1,13.267,51.163Zm2.442,65.778L10.7,109.673H20.715ZM10.3,85.686V60.123h10.81V85.686Z" transform="translate(-1.107 -33.686)" fill="#b5ffea"/>
      <path id="Path_609" data-name="Path 609" d="M74.3,152.721a1.429,1.429,0,0,0-1.429,1.429v5.482a1.429,1.429,0,0,0,2.857,0V154.15A1.429,1.429,0,0,0,74.3,152.721Z" transform="translate(-59.197 -123.629)" fill="#b5ffea"/>
      <path id="Path_610" data-name="Path 610" d="M74.3,214.015a1.429,1.429,0,0,0-1.429,1.429v1.424a1.429,1.429,0,0,0,2.857,0v-1.424A1.429,1.429,0,0,0,74.3,214.015Z" transform="translate(-59.197 -173.247)" fill="#b5ffea"/>
    </g>
  </g>
</svg>
