<svg xmlns="http://www.w3.org/2000/svg" width="97.699" height="97.552" viewBox="0 0 97.699 97.552">
  <g id="Group_539" data-name="Group 539" transform="translate(-368.3 -942)">
    <g id="_038-books" data-name="038-books" transform="translate(368.3 942)">
      <path id="Path_594" data-name="Path 594" d="M143.57,413.123H125.587a1.434,1.434,0,0,0,0,2.868h1.74v14.347a1.434,1.434,0,0,0,1.982,1.325l5.608-2.321,5.608,2.321a1.434,1.434,0,0,0,1.982-1.325V415.99h1.063a1.434,1.434,0,1,0,0-2.867Zm-3.93,15.069-4.174-1.728a1.434,1.434,0,0,0-1.1,0l-4.174,1.728v-12.2h9.445v12.2Z" transform="translate(-100.418 -334.22)" fill="#f10505"/>
      <path id="Path_595" data-name="Path 595" d="M155.168,292.575a1.434,1.434,0,0,0,0,2.868h20.377a1.434,1.434,0,1,0,0-2.868Z" transform="translate(-124.344 -236.717)" fill="#b5ffea"/>
      <path id="Path_596" data-name="Path 596" d="M280.4,266.434a1.433,1.433,0,0,0,1.345.133l5.608-2.321,5.608,2.321a1.434,1.434,0,0,0,1.982-1.325V250.895h1.74a1.434,1.434,0,1,0,0-2.868H278.7a1.434,1.434,0,1,0,0,2.868h1.063v14.347A1.433,1.433,0,0,0,280.4,266.434Zm11.675-15.539v12.2l-4.174-1.728a1.433,1.433,0,0,0-1.1,0l-4.174,1.728v-12.2Z" transform="translate(-224.26 -200.685)" fill="#f10505"/>
      <path id="Path_597" data-name="Path 597" d="M94.843,10.519A2.86,2.86,0,0,0,97.7,7.662V3.243A2.86,2.86,0,0,0,94.843.387H17.359a17.21,17.21,0,0,0-9.5,31.561H2.892A2.86,2.86,0,0,0,.036,34.8v4.419A2.86,2.86,0,0,0,2.892,42.08H5.679V56.245H2.892A2.86,2.86,0,0,0,.036,59.1v4.419a2.86,2.86,0,0,0,2.856,2.856h4.82a17.21,17.21,0,0,0,9.5,31.562h5.393a1.434,1.434,0,1,0,0-2.868H17.214a14.347,14.347,0,0,1,0-28.694H51.2a1.434,1.434,0,1,0,0-2.868H17.214c-.168,0-.335,0-.5.008l-13.809,0-.011-4.408H24.713a1.434,1.434,0,1,0,0-2.868H8.547V42.08H80.225a7.344,7.344,0,0,1,5.2,2.191,6.946,6.946,0,0,1,2.031,5.015,7.115,7.115,0,0,1-7.081,6.959H74.983a1.434,1.434,0,1,0,0,2.868h5.393a10,10,0,0,0,9.948-9.777,9.793,9.793,0,0,0-2.853-7.074,10.228,10.228,0,0,0-7.247-3.048l-72.945.011a1.467,1.467,0,0,0-.167-.011,1.428,1.428,0,0,0-.168.011H2.9l-.011-4.408h19.86a1.434,1.434,0,1,0,0-2.868H17.359a14.347,14.347,0,0,1,0-28.694l77.473-.011.011,4.408H84.072a1.434,1.434,0,1,0,0,2.868h5.34V24.684H46.535a1.434,1.434,0,0,0,0,2.868l44.147-.01a1.338,1.338,0,0,0,.329,0h3.822l.011,4.408H46.535a1.434,1.434,0,0,0,0,2.868H80.376a14.347,14.347,0,0,1,0,28.694H74.983a1.434,1.434,0,1,0,0,2.868H80.46l14.228-.01.011,4.408H17.366a10.229,10.229,0,0,0-7.247,3.048A9.793,9.793,0,0,0,7.266,80.9a10,10,0,0,0,9.949,9.777h5.393a1.434,1.434,0,1,0,0-2.868H17.215a7.115,7.115,0,0,1-7.081-6.959,6.945,6.945,0,0,1,2.031-5.015,7.344,7.344,0,0,1,5.2-2.191H89.044V87.807H46.39a1.434,1.434,0,1,0,0,2.868l48.3-.011.011,4.408H46.39a1.434,1.434,0,0,0,0,2.868H94.7a2.86,2.86,0,0,0,2.856-2.856V90.663A2.86,2.86,0,0,0,94.7,87.807H91.912V73.642H94.7a2.86,2.86,0,0,0,2.856-2.856V66.367A2.86,2.86,0,0,0,94.7,63.51h-4.82a17.2,17.2,0,0,0,0-28.694h4.964A2.86,2.86,0,0,0,97.7,31.96V27.541a2.86,2.86,0,0,0-2.856-2.856H92.28V10.519Z" transform="translate(0 -0.387)" fill="#b5ffea"/>
      <path id="Path_598" data-name="Path 598" d="M110.743,39.82a1.434,1.434,0,0,0-1.434-1.434H48.857a10.229,10.229,0,0,0-7.247,3.048,9.792,9.792,0,0,0-2.853,7.075,10,10,0,0,0,9.949,9.777H54.1a1.434,1.434,0,1,0,0-2.868H48.706a7.115,7.115,0,0,1-7.081-6.959,6.945,6.945,0,0,1,2.031-5.015,7.344,7.344,0,0,1,5.2-2.191h60.451a1.434,1.434,0,0,0,1.434-1.434Z" transform="translate(-31.347 -31.122)" fill="#b5ffea"/>
      <path id="Path_599" data-name="Path 599" d="M128.721,101.34a1.433,1.433,0,0,0,1.345.133l5.608-2.321,5.608,2.321a1.434,1.434,0,0,0,1.982-1.325V85.8h1.063a1.434,1.434,0,1,0,0-2.868H126.344a1.434,1.434,0,0,0,0,2.868h1.74v14.347A1.434,1.434,0,0,0,128.721,101.34ZM140.4,85.8V98l-4.174-1.728a1.434,1.434,0,0,0-1.1,0L130.952,98V85.8Z" transform="translate(-101.031 -67.153)" fill="#f10505"/>
    </g>
  </g>
</svg>
