<svg id="_020-video_lesson" data-name="020-video lesson" xmlns="http://www.w3.org/2000/svg" width="97.774" height="97.552" viewBox="0 0 97.774 97.552">
  <path id="Path_565" data-name="Path 565" d="M96.341,84.593h-2.9V30.484a6.94,6.94,0,0,0-6.932-6.932h-5.6V5.3A4.722,4.722,0,0,0,76.191.581H21.583A4.722,4.722,0,0,0,16.866,5.3V23.552h-5.6a6.94,6.94,0,0,0-6.932,6.932V84.593h-2.9A1.433,1.433,0,0,0,0,86.026v6.44a5.673,5.673,0,0,0,5.667,5.667H92.107a5.673,5.673,0,0,0,5.667-5.667v-6.44A1.433,1.433,0,0,0,96.341,84.593ZM21.583,3.447H76.191A1.853,1.853,0,0,1,78.042,5.3V9.32H19.732V5.3a1.853,1.853,0,0,1,1.851-1.851ZM94.908,92.466a2.8,2.8,0,0,1-2.8,2.8H5.667a2.8,2.8,0,0,1-2.8-2.8V87.459H68.924a1.433,1.433,0,0,0,0-2.866H7.2V30.484a4.071,4.071,0,0,1,4.066-4.066h5.6v2.866H11.5a1.433,1.433,0,0,0-1.433,1.433V80.295A1.433,1.433,0,0,0,11.5,81.727h7.337a1.433,1.433,0,1,0,0-2.866h-5.9V32.149h3.935V45.106a4.722,4.722,0,0,0,4.717,4.717H65.729a1.433,1.433,0,1,0,0-2.866H21.583a1.853,1.853,0,0,1-1.851-1.851V12.185h58.31V45.106a1.853,1.853,0,0,1-1.851,1.851H71.836a1.433,1.433,0,1,0,0,2.866h4.355a4.722,4.722,0,0,0,4.716-4.717V32.149h3.935V78.862h-59.9a1.433,1.433,0,1,0,0,2.866H86.275a1.433,1.433,0,0,0,1.433-1.433V30.717a1.433,1.433,0,0,0-1.433-1.433H80.907V26.418h5.6a4.071,4.071,0,0,1,4.066,4.066V84.593H75.031a1.433,1.433,0,0,0,0,2.866H94.908Z" transform="translate(0 -0.581)" fill="#b5ffea"/>
  <path id="Path_566" data-name="Path 566" d="M229.861,104.306,219.5,97.425a3.3,3.3,0,0,0-5.132,2.753v13.763a3.3,3.3,0,0,0,5.132,2.753l10.365-6.882a3.3,3.3,0,0,0,0-5.506Zm-1.585,3.119-10.365,6.882a.439.439,0,0,1-.681-.366V100.178a.423.423,0,0,1,.231-.387.451.451,0,0,1,.211-.055.427.427,0,0,1,.239.076l10.365,6.882a.439.439,0,0,1,0,.731Z" transform="translate(-173.409 -78.476)" fill="#f10505"/>
  <path id="Path_567" data-name="Path 567" d="M173.649,105.473h-.942a1.433,1.433,0,0,0,0,2.866h.942a1.433,1.433,0,1,0,0-2.866Z" transform="translate(-138.552 -85.433)" fill="#b5ffea"/>
  <path id="Path_568" data-name="Path 568" d="M125.023,108.339h3.411a1.433,1.433,0,0,0,0-2.866h-3.411a1.433,1.433,0,0,0,0,2.866Z" transform="translate(-99.978 -85.433)" fill="#b5ffea"/>
  <path id="Path_569" data-name="Path 569" d="M135.075,142.694H125.023a1.433,1.433,0,0,0,0,2.866h10.053a1.433,1.433,0,1,0,0-2.866Z" transform="translate(-99.978 -115.543)" fill="#b5ffea"/>
  <path id="Path_570" data-name="Path 570" d="M125.964,179.915h-.942a1.433,1.433,0,0,0,0,2.866h.942a1.433,1.433,0,1,0,0-2.866Z" transform="translate(-99.977 -145.653)" fill="#b5ffea"/>
  <path id="Path_571" data-name="Path 571" d="M163.2,179.915h-3.411a1.433,1.433,0,0,0,0,2.866H163.2a1.433,1.433,0,1,0,0-2.866Z" transform="translate(-128.1 -145.653)" fill="#b5ffea"/>
  <path id="Path_572" data-name="Path 572" d="M322.992,108.339h.943a1.433,1.433,0,0,0,0-2.866h-.943a1.433,1.433,0,0,0,0,2.866Z" transform="translate(-260.124 -85.433)" fill="#b5ffea"/>
  <path id="Path_573" data-name="Path 573" d="M357.756,108.339h3.411a1.433,1.433,0,0,0,0-2.866h-3.411a1.433,1.433,0,1,0,0,2.866Z" transform="translate(-288.247 -85.433)" fill="#b5ffea"/>
  <path id="Path_574" data-name="Path 574" d="M322.992,145.56h10.053a1.433,1.433,0,1,0,0-2.866H322.992a1.433,1.433,0,0,0,0,2.866Z" transform="translate(-260.124 -115.543)" fill="#b5ffea"/>
  <path id="Path_575" data-name="Path 575" d="M371.618,179.915h-.943a1.433,1.433,0,0,0,0,2.866h.943a1.433,1.433,0,0,0,0-2.866Z" transform="translate(-298.698 -145.653)" fill="#b5ffea"/>
  <path id="Path_576" data-name="Path 576" d="M327.835,181.348a1.433,1.433,0,0,0-1.433-1.433h-3.411a1.433,1.433,0,0,0,0,2.866H326.4A1.433,1.433,0,0,0,327.835,181.348Z" transform="translate(-260.124 -145.653)" fill="#b5ffea"/>
  <path id="Path_577" data-name="Path 577" d="M120.4,307.778a10.364,10.364,0,0,0,10.248-8.917h20.435a1.433,1.433,0,1,0,0-2.866H130.645a10.348,10.348,0,0,0-20.5,0H89.714a1.433,1.433,0,1,0,0,2.866h20.435A10.364,10.364,0,0,0,120.4,307.778Zm0-17.834a7.484,7.484,0,1,1-7.484,7.484A7.492,7.492,0,0,1,120.4,289.945Z" transform="translate(-71.415 -232.343)" fill="#b5ffea"/>
  <path id="Path_578" data-name="Path 578" d="M236.829,326.315a4.618,4.618,0,1,0-4.618-4.618A4.623,4.623,0,0,0,236.829,326.315Zm0-6.37a1.752,1.752,0,1,1-1.752,1.752A1.754,1.754,0,0,1,236.829,319.945Z" transform="translate(-187.847 -256.611)" fill="#f10505"/>
</svg>
