<svg id="_045-briefcase" data-name="045-briefcase" xmlns="http://www.w3.org/2000/svg" width="89.911" height="97.552" viewBox="0 0 89.911 97.552">
  <path id="Path_585" data-name="Path 585" d="M104.261,34.023H96.715V11.492a2.042,2.042,0,0,0,1.226-1.856,2.089,2.089,0,0,0-1.666-2.012L65.573.07A2.458,2.458,0,0,0,64.4.07L33.7,7.624a2.048,2.048,0,0,0,0,4.024L40.436,13.3V34.023H25.716a5.69,5.69,0,0,0-5.683,5.683v2.431a1.43,1.43,0,1,0,2.86,0V39.706a2.826,2.826,0,0,1,2.823-2.823H93.855v1.979h-.02A3.84,3.84,0,0,0,90,42.7v4.1a2.306,2.306,0,0,0,2.3,2.3h5.964a2.306,2.306,0,0,0,2.3-2.3V42.7a3.84,3.84,0,0,0-3.836-3.836h-.02V36.883h7.546a2.826,2.826,0,0,1,2.823,2.823V57.4a1.917,1.917,0,0,1-1.414,1.847l-6.4,1.732V58.239a5.608,5.608,0,0,0-5.6-5.6H85.159a5.608,5.608,0,0,0-5.6,5.6v8.074L68.344,69.347a12.863,12.863,0,0,1-6.711,0L50.61,66.365V58.239a5.608,5.608,0,0,0-5.6-5.6H36.5a5.608,5.608,0,0,0-5.6,5.6v2.794L24.307,59.25A1.917,1.917,0,0,1,22.893,57.4V48.231a1.43,1.43,0,1,0-2.86,0V57.4a4.782,4.782,0,0,0,3.256,4.522V89.448a6.594,6.594,0,0,0,6.586,6.587h4.081a3.334,3.334,0,0,0,2.793,1.517h8.013a3.334,3.334,0,0,0,2.793-1.517H82.613a3.334,3.334,0,0,0,2.793,1.517h8.013a3.334,3.334,0,0,0,2.793-1.517H100.1a6.594,6.594,0,0,0,6.586-6.587V61.925a4.781,4.781,0,0,0,3.256-4.522v-17.7a5.689,5.689,0,0,0-5.683-5.683ZM97.71,42.7v3.54H92.859V42.7a.977.977,0,0,1,.976-.976h2.9A.977.977,0,0,1,97.71,42.7ZM64.4,19.2a2.446,2.446,0,0,0,1.17,0l6.382-1.57a1.43,1.43,0,1,0-.683-2.777L64.989,16.4,37.5,9.636,64.989,2.872l27.49,6.764-15.241,3.75a1.43,1.43,0,1,0,.683,2.777l8.76-2.155V26.446H43.3V14.008ZM43.3,29.307H86.681v4.716H43.3Zm46.246,4.716V13.3l4.313-1.061v21.78ZM82.418,58.239A2.744,2.744,0,0,1,85.159,55.5h8.507a2.744,2.744,0,0,1,2.741,2.741V69a.485.485,0,0,1-.484.484H82.9A.485.485,0,0,1,82.418,69Zm-48.657,0A2.744,2.744,0,0,1,36.5,55.5h8.507a2.744,2.744,0,0,1,2.741,2.741V69a.485.485,0,0,1-.485.484H34.246A.485.485,0,0,1,33.761,69ZM26.149,89.448V62.711L30.9,64V69a3.347,3.347,0,0,0,2.512,3.236V93.174H29.875a3.73,3.73,0,0,1-3.726-3.726Zm18.613,5.243H36.749a.477.477,0,0,1-.476-.476V72.347h8.964V94.215A.476.476,0,0,1,44.762,94.691Zm48.657,0H85.406a.476.476,0,0,1-.476-.476V81.046a1.43,1.43,0,1,0-2.86,0V93.174H48.1V72.238a3.349,3.349,0,0,0,2.5-2.914l10.293,2.784a15.733,15.733,0,0,0,8.2,0l10.481-2.835a3.347,3.347,0,0,0,2.5,2.965v2.714a1.43,1.43,0,1,0,2.86,0v-2.6h8.964V94.215a.477.477,0,0,1-.476.476Zm6.684-1.517H96.755V72.238A3.347,3.347,0,0,0,99.267,69V63.945l4.561-1.234V89.448a3.731,3.731,0,0,1-3.726,3.726Z" transform="translate(-20.033 0)" fill="#b5ffea"/>
  <path id="Path_586" data-name="Path 586" d="M109.31,312.9a4.571,4.571,0,1,0-4.571-4.571A4.576,4.576,0,0,0,109.31,312.9Zm0-6.281a1.711,1.711,0,1,1-1.71,1.711A1.713,1.713,0,0,1,109.31,306.617Z" transform="translate(-88.587 -245.836)" fill="#f10505"/>
  <path id="Path_587" data-name="Path 587" d="M364.481,312.9a4.571,4.571,0,1,0-4.571-4.571A4.576,4.576,0,0,0,364.481,312.9Zm0-6.281a1.711,1.711,0,1,1-1.711,1.711A1.712,1.712,0,0,1,364.481,306.617Z" transform="translate(-295.101 -245.836)" fill="#f10505"/>
  <ellipse id="Ellipse_146" data-name="Ellipse 146" cx="1.907" cy="1.907" rx="1.907" ry="1.907" transform="translate(43.049 55.216)" fill="#b5ffea"/>
</svg>
