<svg id="_051-facebook" data-name="051-facebook" xmlns="http://www.w3.org/2000/svg" width="53.988" height="53.988" viewBox="0 0 53.988 53.988">
  <g id="Group_500" data-name="Group 500" transform="translate(0 0)">
    <path id="Path_620" data-name="Path 620" d="M46.082,7.906a27,27,0,1,0-28.477,44.4.854.854,0,0,0,.977-.285.883.883,0,0,0,.172-.538v-15.4a.852.852,0,0,0-.852-.852H10.8V28.983h7.1a.852.852,0,0,0,.852-.852V26.994c0-7.417,7.037-13.923,15.06-13.923h3.694v6.251H33.814a9.834,9.834,0,0,0-6.159,1.95,7.074,7.074,0,0,0-2.649,5.722V28.13a.852.852,0,0,0,.852.852h3.361a.852.852,0,0,0,0-1.7H26.711v-.284c0-4.4,3.827-5.967,7.1-5.967h4.546a.852.852,0,0,0,.852-.852V12.218a.852.852,0,0,0-.852-.852H33.814a17.535,17.535,0,0,0-11.588,4.548,14.915,14.915,0,0,0-5.177,11.08v.284h-7.1a.852.852,0,0,0-.852.852v7.956a.852.852,0,0,0,.852.852h7.1V50.251a25.3,25.3,0,1,1,9.945,2.032l-.284,0V36.939h11.65a.852.852,0,0,0,.852-.852V28.13a.852.852,0,0,0-.852-.852H33.371a.852.852,0,0,0,0,1.7h4.137v6.251H25.858a.852.852,0,0,0-.852.852V53.109a.852.852,0,0,0,.815.852c.422.018.806.027,1.174.027A26.994,26.994,0,0,0,46.082,7.906Z" transform="translate(-0.001 0)" fill="#f10505"/>
  </g>
</svg>
