<svg id="_015-eyeglasses" data-name="015-eyeglasses" xmlns="http://www.w3.org/2000/svg" width="86.557" height="39.497" viewBox="0 0 86.557 39.497">
  <path id="Path_618" data-name="Path 618" d="M86.392,154.347a21.2,21.2,0,0,0-7.321-10.57,1.266,1.266,0,1,0-1.543,2.007,18.653,18.653,0,0,1,6.441,9.3,1.265,1.265,0,0,1-.844,1.578c-.031.009-.061.016-.092.023l-.045.01a1.268,1.268,0,0,1-1.442-.877,16.085,16.085,0,0,0-5.679-8.117,15.954,15.954,0,0,0-19.177,0,16.084,16.084,0,0,0-5.679,8.118,1.263,1.263,0,0,1-1.578.844,1.265,1.265,0,0,1-.844-1.578,18.635,18.635,0,0,1,6.578-9.405,18.512,18.512,0,0,1,17.976-2.4,1.266,1.266,0,1,0,.942-2.35,21.043,21.043,0,0,0-20.441,2.725,21.218,21.218,0,0,0-5.946,6.989l-.884-.948a2.663,2.663,0,0,0-1.941-.844H41.517a2.663,2.663,0,0,0-1.941.844l-.776.832a21.217,21.217,0,0,0-5.886-6.872,21.017,21.017,0,0,0-25.271,0A21.182,21.182,0,0,0,.165,154.347a3.789,3.789,0,0,0,1.714,4.373c-.053.574-.083,1.151-.083,1.725a18.485,18.485,0,0,0,27.555,16.1,1.266,1.266,0,1,0-1.244-2.2,15.954,15.954,0,0,1-23.779-13.9c0-.414.017-.83.05-1.246a3.8,3.8,0,0,0,3.056-2.651,13.533,13.533,0,0,1,4.78-6.83,13.468,13.468,0,0,1,12.309-2.012,1.266,1.266,0,1,0,.8-2.4A15.967,15.967,0,0,0,5.01,155.815a1.267,1.267,0,0,1-1.442.877l-.044-.01c-.031-.007-.062-.014-.092-.023a1.265,1.265,0,0,1-.844-1.578,18.635,18.635,0,0,1,6.578-9.405,18.485,18.485,0,0,1,22.224,0,18.632,18.632,0,0,1,6.578,9.405,1.265,1.265,0,0,1-.844,1.578,1.263,1.263,0,0,1-1.578-.844,16.158,16.158,0,0,0-5.1-7.659,1.266,1.266,0,1,0-1.617,1.948,13.6,13.6,0,0,1,4.3,6.444A3.771,3.771,0,0,0,36.18,159.2c.032.415.049.831.049,1.245a15.906,15.906,0,0,1-4.207,10.793,1.266,1.266,0,1,0,1.863,1.713,18.429,18.429,0,0,0,4.875-12.506c0-.574-.03-1.151-.083-1.725a3.789,3.789,0,0,0,1.714-4.373c-.136-.448-.29-.89-.456-1.327l1.492-1.6a.124.124,0,0,1,.09-.039h3.355a.123.123,0,0,1,.09.039l1.612,1.728c-.147.4-.286.794-.408,1.2a3.789,3.789,0,0,0,1.714,4.373c-.053.575-.083,1.152-.083,1.725a18.482,18.482,0,1,0,36.965,0c0-.574-.03-1.151-.083-1.725a3.79,3.79,0,0,0,1.714-4.374ZM66.279,176.4a15.969,15.969,0,0,1-15.951-15.951c0-.414.017-.83.049-1.245a3.771,3.771,0,0,0,3.057-2.652,13.533,13.533,0,0,1,4.78-6.83,13.423,13.423,0,0,1,16.13,0,13.533,13.533,0,0,1,4.78,6.829A3.8,3.8,0,0,0,82.18,159.2c.032.415.05.831.05,1.246A15.969,15.969,0,0,1,66.279,176.4Z" transform="translate(0 -139.432)" fill="#b5ffea"/>
</svg>
