<svg id="_051-instagram" data-name="051-instagram" xmlns="http://www.w3.org/2000/svg" width="53.988" height="53.988" viewBox="0 0 53.988 53.988">
  <g id="Group_502" data-name="Group 502" transform="translate(0 0)">
    <g id="Group_501" data-name="Group 501">
      <path id="Path_621" data-name="Path 621" d="M46.081,7.906A26.994,26.994,0,1,0,7.906,46.081,26.994,26.994,0,1,0,46.081,7.906ZM26.994,52.283A25.289,25.289,0,1,1,52.283,26.994,25.318,25.318,0,0,1,26.994,52.283Z" transform="translate(0 0)" fill="#f10505"/>
    </g>
  </g>
  <g id="Group_504" data-name="Group 504" transform="translate(10.229 10.229)">
    <g id="Group_503" data-name="Group 503">
      <path id="Path_622" data-name="Path 622" d="M123.46,97.011H104.091a7.088,7.088,0,0,0-7.08,7.08V123.46a7.088,7.088,0,0,0,7.08,7.08H123.46a7.088,7.088,0,0,0,7.08-7.08V104.091A7.088,7.088,0,0,0,123.46,97.011Zm5.375,26.449a5.381,5.381,0,0,1-5.375,5.375H104.091a5.381,5.381,0,0,1-5.375-5.375V104.091a5.381,5.381,0,0,1,5.375-5.375H123.46a5.381,5.381,0,0,1,5.375,5.375V123.46Z" transform="translate(-97.011 -97.011)" fill="#f10505"/>
    </g>
  </g>
  <g id="Group_506" data-name="Group 506" transform="translate(18.185 18.185)">
    <g id="Group_505" data-name="Group 505">
      <path id="Path_623" data-name="Path 623" d="M190.066,180.769a8.818,8.818,0,1,0-4.146,7.981.845.845,0,0,0,.152-1.314l-.012-.012a.849.849,0,0,0-1.051-.113,7.059,7.059,0,0,1-3.813,1.065,7.111,7.111,0,1,1,6.353-3.783.849.849,0,0,0,.143,1l.013.013a.842.842,0,0,0,1.337-.191A8.755,8.755,0,0,0,190.066,180.769Z" transform="translate(-172.463 -172.464)" fill="#f10505"/>
    </g>
  </g>
  <g id="Group_508" data-name="Group 508" transform="translate(33.813 14.491)">
    <g id="Group_507" data-name="Group 507">
      <ellipse id="Ellipse_147" data-name="Ellipse 147" cx="2.273" cy="2.273" rx="2.273" ry="2.273" fill="#f10505"/>
    </g>
  </g>
</svg>
