<svg id="_051-linkedin" data-name="051-linkedin" xmlns="http://www.w3.org/2000/svg" width="53.988" height="53.988" viewBox="0 0 53.988 53.988">
  <g id="Group_510" data-name="Group 510" transform="translate(0)">
    <g id="Group_509" data-name="Group 509">
      <path id="Path_624" data-name="Path 624" d="M46.081,7.906A26.994,26.994,0,1,0,7.906,46.081,26.994,26.994,0,1,0,46.081,7.906ZM26.994,52.283A25.289,25.289,0,1,1,52.283,26.994,25.318,25.318,0,0,1,26.994,52.283Z" transform="translate(0)" fill="#f10505"/>
    </g>
  </g>
  <g id="Group_512" data-name="Group 512" transform="translate(12.502 21.595)">
    <g id="Group_511" data-name="Group 511">
      <path id="Path_625" data-name="Path 625" d="M125.1,204.8H119.42a.852.852,0,0,0-.852.852V222.7a.852.852,0,0,0,.852.852H125.1a.852.852,0,0,0,.852-.852V205.652A.852.852,0,0,0,125.1,204.8Zm-.852,17.049h-3.978V206.5h3.978Z" transform="translate(-118.568 -204.8)" fill="#f10505"/>
    </g>
  </g>
  <g id="Group_514" data-name="Group 514" transform="translate(11.366 11.366)">
    <g id="Group_513" data-name="Group 513">
      <path id="Path_626" data-name="Path 626" d="M112.051,107.789a4.262,4.262,0,1,0,4.262,4.262A4.267,4.267,0,0,0,112.051,107.789Zm0,6.82a2.557,2.557,0,1,1,2.557-2.557A2.56,2.56,0,0,1,112.051,114.609Z" transform="translate(-107.789 -107.789)" fill="#f10505"/>
    </g>
  </g>
  <g id="Group_516" data-name="Group 516" transform="translate(23.868 21.595)">
    <g id="Group_515" data-name="Group 515">
      <path id="Path_627" data-name="Path 627" d="M237.44,204.8a9.973,9.973,0,0,0-4.831,1.254v-.4a.852.852,0,0,0-.852-.852H227.21a.852.852,0,0,0-.852.852V222.7a.852.852,0,0,0,.852.852h5.683a.852.852,0,0,0,.852-.852v-6.12c0-2,.444-4.393,2.557-4.393,1.577,0,2.224,1.331,2.451,2.839a.85.85,0,1,0,1.678-.271c-.428-2.739-1.88-4.272-4.129-4.272-2.709,0-4.262,2.223-4.262,6.1v5.268h-3.978V206.5H230.9v1.121a.876.876,0,0,0,.317.687.854.854,0,0,0,1.069,0,8.15,8.15,0,0,1,5.15-1.81c4.907,0,7.1,4.139,7.1,8.24v7.1h-3.978v-2.807a.85.85,0,0,0-.85-.85h0a.85.85,0,0,0-.85.85V222.7a.852.852,0,0,0,.852.852H245.4a.852.852,0,0,0,.852-.852v-7.956C246.248,208.89,242.626,204.8,237.44,204.8Z" transform="translate(-226.358 -204.8)" fill="#f10505"/>
    </g>
  </g>
</svg>
