<svg id="_043-chat" data-name="043-chat" xmlns="http://www.w3.org/2000/svg" width="97.383" height="97.552" viewBox="0 0 97.383 97.552">
  <path id="Path_579" data-name="Path 579" d="M87.306,47.726h-2.4a1.429,1.429,0,0,0,0,2.857h2.4a7.671,7.671,0,0,1,7.663,7.663v49.907H29.974a1.429,1.429,0,1,0,0,2.857H94.968v2.107a6.27,6.27,0,0,1-6.263,6.263H9.562A6.27,6.27,0,0,1,3.3,113.117V111.01H23.886a1.429,1.429,0,1,0,0-2.857H3.3V58.246a7.671,7.671,0,0,1,7.663-7.663H13.4a1.429,1.429,0,0,0,0-2.857h-2.44A10.532,10.532,0,0,0,.442,58.246v54.871a9.13,9.13,0,0,0,9.12,9.12H36.281v4.7h-.318a4.643,4.643,0,0,0-4.637,4.637v1.76h-2.56a1.429,1.429,0,0,0,0,2.857H69.544a1.429,1.429,0,1,0,0-2.857h-2.6v-1.76a4.643,4.643,0,0,0-4.637-4.637h-.318v-4.7H88.705a9.13,9.13,0,0,0,9.12-9.12V58.246A10.531,10.531,0,0,0,87.306,47.726ZM64.084,131.57v1.76h-29.9v-1.76a1.782,1.782,0,0,1,1.78-1.78H62.3A1.782,1.782,0,0,1,64.084,131.57Zm-4.956-4.637H39.139v-4.7h19.99Z" transform="translate(-0.442 -38.635)" fill="#b5ffea"/>
  <path id="Path_580" data-name="Path 580" d="M35.248,63.8A1.951,1.951,0,0,1,33.3,61.855V19.611a1.951,1.951,0,0,1,1.948-1.948h2.44a1.429,1.429,0,1,0,0-2.857h-2.44a4.811,4.811,0,0,0-4.806,4.806V61.854a4.811,4.811,0,0,0,4.806,4.806H93.83a1.429,1.429,0,1,0,0-2.857h-49V11.948h57.221V63.8H99.918a1.429,1.429,0,0,0,0,2.857h11.673a4.811,4.811,0,0,0,4.806-4.806V19.611a4.811,4.811,0,0,0-4.806-4.806h-2.4a1.429,1.429,0,0,0,0,2.857h2.4a1.951,1.951,0,0,1,1.948,1.948V61.854a1.951,1.951,0,0,1-1.948,1.948h-6.682V5.095A5.1,5.1,0,0,0,99.814,0H47.068a5.1,5.1,0,0,0-5.095,5.095V63.8ZM47.068,2.857H99.814a2.24,2.24,0,0,1,2.238,2.238v4H44.83v-4a2.24,2.24,0,0,1,2.238-2.238Z" transform="translate(-24.728 0)" fill="#b5ffea"/>
  <path id="Path_581" data-name="Path 581" d="M170.5,92.284a9.735,9.735,0,0,0-9.724-9.724h-2.68a1.429,1.429,0,1,0,0,2.857h2.68a6.867,6.867,0,0,1,0,13.734H149.5a1.429,1.429,0,0,0-.788.237l-3.065,2.026V92.284a6.872,6.872,0,0,1,6.447-6.853,1.429,1.429,0,1,0-.172-2.852,9.732,9.732,0,0,0-9.132,9.7v11.788A1.429,1.429,0,0,0,145,105.263l4.923-3.255h10.846A9.735,9.735,0,0,0,170.5,92.284Z" transform="translate(-115.674 -66.834)" fill="#f10505"/>
  <path id="Path_582" data-name="Path 582" d="M235.327,217.475h10.846l4.923,3.255a1.429,1.429,0,0,0,2.217-1.192V207.751a9.735,9.735,0,0,0-9.724-9.724h-8.262a9.724,9.724,0,0,0,0,19.448Zm0-16.591h8.262a6.875,6.875,0,0,1,6.867,6.867v9.131l-3.065-2.026a1.428,1.428,0,0,0-.788-.237H235.327a6.867,6.867,0,0,1,0-13.734Z" transform="translate(-182.715 -160.307)" fill="#b5ffea"/>
  <ellipse id="Ellipse_144" data-name="Ellipse 144" cx="1.905" cy="1.905" rx="1.905" ry="1.905" transform="translate(59.148 23.545)" fill="#b5ffea"/>
  <ellipse id="Ellipse_145" data-name="Ellipse 145" cx="1.905" cy="1.905" rx="1.905" ry="1.905" transform="translate(35.084 45.98)" fill="#b5ffea"/>
  <path id="Path_583" data-name="Path 583" d="M355.359,127.54a1.428,1.428,0,0,0-1.429-1.429h-3.172a1.429,1.429,0,1,0,0,2.857h3.172A1.428,1.428,0,0,0,355.359,127.54Z" transform="translate(-282.875 -102.09)" fill="#b5ffea"/>
  <path id="Path_584" data-name="Path 584" d="M133.434,243.893a1.429,1.429,0,0,0,0,2.857h3.172a1.429,1.429,0,0,0,0-2.857Z" transform="translate(-106.945 -197.437)" fill="#b5ffea"/>
</svg>
