<svg xmlns="http://www.w3.org/2000/svg" width="136.509" height="69.634" viewBox="0 0 136.509 69.634">
  <g id="Group_478" data-name="Group 478" transform="translate(-314 -709.005)">
    <g id="Group_12" data-name="Group 12" transform="translate(314 709.005)">
      <path id="Path_17" data-name="Path 17" d="M789.849,53.391,756.9,87.226h7.856Z" transform="translate(-731.808 -53.391)" fill="#be2323"/>
      <path id="Path_18" data-name="Path 18" d="M722.744,129.9h-7.856l9.989,15.644h7.856Z" transform="translate(-699.784 -111.708)" fill="#f23635"/>
      <path id="Path_19" data-name="Path 19" d="M651.363,237.79l32.949-33.835h-7.856Z" transform="translate(-651.363 -168.156)" fill="#82cbb6"/>
      <path id="Path_20" data-name="Path 20" d="M766.889,219.6h7.856l-9.989-15.645H756.9Z" transform="translate(-731.808 -168.156)" fill="#b5ffea"/>
    </g>
    <path id="Path_21" data-name="Path 21" d="M-5.617-27.235a10.428,10.428,0,0,1-4.623-.985,7.79,7.79,0,0,1-3.178-2.745,7.294,7.294,0,0,1-1.156-4.1,7.5,7.5,0,0,1,1.09-4.058,7.487,7.487,0,0,1,3.021-2.732,9.6,9.6,0,0,1,4.426-.985,8.12,8.12,0,0,1,4.321,1.116,7.45,7.45,0,0,1,2.824,3.139,10.626,10.626,0,0,1,1,4.754h-14v-2.6H.4l-1.707.972a5.489,5.489,0,0,0-.7-2.522A4.249,4.249,0,0,0-3.66-39.594a5.063,5.063,0,0,0-2.456-.565,5.409,5.409,0,0,0-2.614.6,4.395,4.395,0,0,0-1.747,1.694,5.08,5.08,0,0,0-.63,2.587,5.326,5.326,0,0,0,.749,2.863A4.84,4.84,0,0,0-8.23-30.558a7.672,7.672,0,0,0,3.27.644,12.069,12.069,0,0,0,3.493-.538,10.734,10.734,0,0,0,3.152-1.51v2.469A10.451,10.451,0,0,1-1.637-27.84,13.417,13.417,0,0,1-5.617-27.235Zm48.254-4.938a4.168,4.168,0,0,1-.841,2.6,5.252,5.252,0,0,1-2.548,1.694,13.25,13.25,0,0,1-4.281.591,14.139,14.139,0,0,1-4.6-.67,6.838,6.838,0,0,1-3.008-1.891,4.525,4.525,0,0,1-1.143-2.824h3.467a2.663,2.663,0,0,0,.854,1.484,4.6,4.6,0,0,0,1.839.985,9.136,9.136,0,0,0,2.614.341,7.758,7.758,0,0,0,3.2-.512,1.657,1.657,0,0,0,1.077-1.563,1.161,1.161,0,0,0-.722-1.077,8.511,8.511,0,0,0-2.719-.552l-2.916-.263a11.28,11.28,0,0,1-3.73-.854,4.4,4.4,0,0,1-1.944-1.576,3.7,3.7,0,0,1-.578-1.983,3.614,3.614,0,0,1,.946-2.548,5.962,5.962,0,0,1,2.627-1.563,12.852,12.852,0,0,1,3.914-.538,12.282,12.282,0,0,1,4.124.644,7.193,7.193,0,0,1,2.889,1.786,4.309,4.309,0,0,1,1.208,2.64H38.907a2.348,2.348,0,0,0-.617-1.169,3.846,3.846,0,0,0-1.55-.946,8.24,8.24,0,0,0-2.771-.381,7.092,7.092,0,0,0-2.876.473,1.5,1.5,0,0,0-1.038,1.392,1.169,1.169,0,0,0,.63.985,5.658,5.658,0,0,0,2.338.565l3.756.341a11.048,11.048,0,0,1,3.533.8,3.836,3.836,0,0,1,1.8,1.51A4.107,4.107,0,0,1,42.637-32.174Zm2.049-10.349H48.1l.893,5.358v9.508H45.579V-37.663Zm9.8-.368a6.318,6.318,0,0,1,3.349.841,5.374,5.374,0,0,1,2.1,2.4,8.935,8.935,0,0,1,.722,3.769v8.221H57.241v-7.67a5.448,5.448,0,0,0-.985-3.533,3.512,3.512,0,0,0-2.876-1.2,4.154,4.154,0,0,0-2.325.644,4.219,4.219,0,0,0-1.523,1.8,6.348,6.348,0,0,0-.538,2.705l-1.208-.657a10.167,10.167,0,0,1,1.143-3.94,6.678,6.678,0,0,1,2.338-2.508A6.021,6.021,0,0,1,54.483-42.89Zm11.636,0a6.388,6.388,0,0,1,3.362.841,5.349,5.349,0,0,1,2.114,2.4,8.935,8.935,0,0,1,.722,3.769v8.221H68.9v-7.67a5.448,5.448,0,0,0-.985-3.533,3.512,3.512,0,0,0-2.876-1.2,4.154,4.154,0,0,0-2.325.644,4.219,4.219,0,0,0-1.523,1.8,6.348,6.348,0,0,0-.538,2.705l-1.208-.657A10.167,10.167,0,0,1,60.59-39.5a6.677,6.677,0,0,1,2.338-2.508A5.973,5.973,0,0,1,66.119-42.89ZM89.6-27.656l-.578-5.516.683-1.917-.683-1.891.578-5.542h3.52l-.788,7.433.788,7.433Zm1.051-7.433A11.922,11.922,0,0,1,89-30.992a8.391,8.391,0,0,1-2.85,2.732,7.439,7.439,0,0,1-3.769.972,7.5,7.5,0,0,1-3.861-.985,6.9,6.9,0,0,1-2.627-2.745,8.47,8.47,0,0,1-.946-4.071,8.451,8.451,0,0,1,.946-4.084,6.919,6.919,0,0,1,2.627-2.732,7.5,7.5,0,0,1,3.861-.985,7.439,7.439,0,0,1,3.769.972A8.551,8.551,0,0,1,89.01-39.2,11.287,11.287,0,0,1,90.652-35.089Zm-12.24,0a5.468,5.468,0,0,0,.617,2.64,4.561,4.561,0,0,0,1.694,1.786,4.72,4.72,0,0,0,2.469.644,5.5,5.5,0,0,0,2.627-.644,7.008,7.008,0,0,0,2.141-1.786,9.126,9.126,0,0,0,1.484-2.64,9.126,9.126,0,0,0-1.484-2.64,7.009,7.009,0,0,0-2.141-1.786,5.5,5.5,0,0,0-2.627-.644,4.72,4.72,0,0,0-2.469.644,4.561,4.561,0,0,0-1.694,1.786A5.468,5.468,0,0,0,78.412-35.089ZM95.7-42.523H99.11L100-37.112v9.456H96.588V-37.768Zm11.846-.105v2.994a8.5,8.5,0,0,0-1.261-.236,11.257,11.257,0,0,0-1.287-.079,5.191,5.191,0,0,0-2.574.63,4.387,4.387,0,0,0-1.773,1.878A6.618,6.618,0,0,0,100-34.38l-.788-.972a12.627,12.627,0,0,1,.538-2.955,7.842,7.842,0,0,1,1.208-2.4,5.5,5.5,0,0,1,1.9-1.6,5.691,5.691,0,0,1,2.627-.578,9.107,9.107,0,0,1,1.077.066A5.427,5.427,0,0,1,107.541-42.628Zm.63,2.732v-1.55l3.178-.814,1.418-4.15h2v3.887h6.908V-39.9h-6.908v6.435a3.481,3.481,0,0,0,.8,2.614,3.759,3.759,0,0,0,2.614.749,7.633,7.633,0,0,0,2.049-.25,7.3,7.3,0,0,0,1.707-.722v2.811A9.917,9.917,0,0,1,120-27.6a10.415,10.415,0,0,1-2.561.315,7.41,7.41,0,0,1-3.52-.722,4.443,4.443,0,0,1-1.957-2,6.637,6.637,0,0,1-.617-2.929V-39.9Z" transform="translate(328.574 777.841)" fill="#b5ffea"/>
  </g>
</svg>
