<svg id="_030-target" data-name="030-target" xmlns="http://www.w3.org/2000/svg" width="86.743" height="86.999" viewBox="0 0 86.743 86.999">
  <path id="Path_619" data-name="Path 619" d="M86.106,53.205l1.317-4.9A2.149,2.149,0,0,0,85.348,45.6H74.5a2.152,2.152,0,0,0-2.075,1.591l-1.274,4.738h-2.83A33.809,33.809,0,0,0,42.768,20.42L38.59,9.811,43.01,8.1a2.729,2.729,0,0,0,1.557-3.531l-1.1-2.823A2.732,2.732,0,0,0,39.94.185L7.553,12.754A2.729,2.729,0,0,0,6,16.285l1.1,2.823a2.724,2.724,0,0,0,3.531,1.557l.755-.293v8.246a33.79,33.79,0,1,0,56.94,25.864h2.831l1.274,4.738A2.153,2.153,0,0,0,74.5,60.81h3.244a1.277,1.277,0,1,0,0-2.553H74.809l-1.016-3.775H83.806l1.015,3.775H83.184a1.277,1.277,0,1,0,0,2.553h2.165A2.149,2.149,0,0,0,87.424,58.1Zm-11.3-5.052H84.821l-1.015,3.775H73.793ZM13.932,19.381l1.117-.434,2.061,5.31a33.8,33.8,0,0,0-3.178,2.179ZM12.014,42.84H13.3a1.546,1.546,0,0,1,1.544,1.544v2.837H10.47V44.385A1.546,1.546,0,0,1,12.014,42.84ZM34.55,84.446a31.23,31.23,0,0,1-23.172-52.18v8.07a4.1,4.1,0,0,0-3.462,4.048v3.229a2.164,2.164,0,0,0,2.162,2.162h5.154a2.164,2.164,0,0,0,2.162-2.162V44.385a4.1,4.1,0,0,0-3.462-4.048V29.743a31.032,31.032,0,0,1,16.674-7.532,1.277,1.277,0,1,0-.319-2.533,33.517,33.517,0,0,0-10.923,3.331l-1.935-4.985,1.292-.5a1.277,1.277,0,0,0-.924-2.38l-2.48.963h0L9.7,18.284a.176.176,0,0,1-.227-.1l-1.1-2.823a.175.175,0,0,1,.1-.226L40.863,2.565a.175.175,0,0,1,.227.1l1.1,2.823a.175.175,0,0,1-.1.226L22.869,13.173a1.277,1.277,0,0,0,.924,2.38L36.21,10.734l3.577,9.083a34.093,34.093,0,0,0-3.848-.377,1.277,1.277,0,0,0-.1,2.551A31.237,31.237,0,0,1,65.764,51.928H58.787A24.27,24.27,0,0,0,16.62,36.848a1.277,1.277,0,1,0,1.886,1.721A21.716,21.716,0,0,1,56.228,51.928H47.552a13.065,13.065,0,1,0,0,2.553h8.676a21.716,21.716,0,0,1-43.39-.9,1.277,1.277,0,0,0-1.276-1.255H11.54a1.277,1.277,0,0,0-1.255,1.3,24.269,24.269,0,0,0,48.5.854h6.976A31.278,31.278,0,0,1,34.55,84.446Zm0-29.964H44.981a10.512,10.512,0,1,1,0-2.553H34.55a1.277,1.277,0,1,0,0,2.553Z" transform="translate(-0.756 0)" fill="#b5ffea"/>
</svg>
