<svg id="_013-raise_hand" data-name="013-raise hand" xmlns="http://www.w3.org/2000/svg" width="88.486" height="91.01" viewBox="0 0 88.486 91.01">
  <path id="Path_612" data-name="Path 612" d="M280.993,265.164h-2.679v-4.491a6.188,6.188,0,0,0-2.283-4.8v-4.426a1.333,1.333,0,1,0-2.666,0V254.6a6.2,6.2,0,0,0-1.249-.126h-2.14a3.716,3.716,0,0,0-3.712,3.712v19.651a10.577,10.577,0,0,0,9.231,10.477v7.019a1.333,1.333,0,1,0,2.666,0V288.4h.024a1.333,1.333,0,0,0,0-2.666h-1.357a7.906,7.906,0,0,1-7.9-7.9V258.187a1.046,1.046,0,0,1,1.045-1.045h2.14a3.536,3.536,0,0,1,3.532,3.532v11.773a1.333,1.333,0,1,0,2.666,0V267.83h2.679a4.133,4.133,0,0,1,4.129,4.129v5.429a1.333,1.333,0,0,0,2.666,0v-5.429A6.8,6.8,0,0,0,280.993,265.164Z" transform="translate(-220.199 -205.656)" fill="#b5ffea"/>
  <path id="Path_613" data-name="Path 613" d="M445.293,367.642a1.333,1.333,0,0,0-1.333,1.333v9.019a4.385,4.385,0,0,1-4.379,4.379h-4.223a1.333,1.333,0,0,0,0,2.666h2.273v6.932a1.333,1.333,0,1,0,2.666,0V385a7.055,7.055,0,0,0,6.329-7.009v-9.019A1.333,1.333,0,0,0,445.293,367.642Z" transform="translate(-358.14 -302.295)" fill="#b5ffea"/>
  <path id="Path_614" data-name="Path 614" d="M336.113,152.973a5.386,5.386,0,0,0-3.341,1.159,5.407,5.407,0,0,0-7.571-2.2v-1.156a5.415,5.415,0,0,0-10.8-.522,5.412,5.412,0,0,0-8.189,4.648v4.731a1.333,1.333,0,0,0,2.666,0V154.9a2.749,2.749,0,1,1,5.5,0v15.517a1.333,1.333,0,1,0,2.666,0V150.772a2.749,2.749,0,0,1,5.5,0v19.643a1.333,1.333,0,1,0,2.666,0V156.591a2.749,2.749,0,0,1,5.5,0v13.824a1.333,1.333,0,0,0,2.666,0V158.388a2.749,2.749,0,1,1,5.5,0v22.131a1.333,1.333,0,0,0,2.666,0V158.388A5.421,5.421,0,0,0,336.113,152.973Z" transform="translate(-253.041 -119.52)" fill="#b5ffea"/>
  <path id="Path_615" data-name="Path 615" d="M21.827,179.824H19.148v-4.491a6.188,6.188,0,0,0-2.283-4.8V155.694a2.749,2.749,0,0,1,5.5,0v15.517a1.333,1.333,0,0,0,2.666,0V151.568a2.765,2.765,0,0,1,1.957-2.632,1.333,1.333,0,1,0-.767-2.554,5.452,5.452,0,0,0-3.829,4.666,5.412,5.412,0,0,0-8.192,4.647v13.568a6.2,6.2,0,0,0-1.249-.126h-2.14A3.716,3.716,0,0,0,7.1,172.847V192.5a10.577,10.577,0,0,0,9.231,10.477v7.019a1.333,1.333,0,0,0,2.666,0v-6.932h.024a1.333,1.333,0,1,0,0-2.666H17.663a7.907,7.907,0,0,1-7.9-7.9v-19.65a1.046,1.046,0,0,1,1.045-1.045h2.14a3.536,3.536,0,0,1,3.532,3.532v11.773a1.333,1.333,0,1,0,2.666,0v-4.616h2.679a4.133,4.133,0,0,1,4.129,4.129v5.429a1.333,1.333,0,0,0,2.666,0v-5.429a6.8,6.8,0,0,0-6.795-6.795Z" transform="translate(-7.099 -120.317)" fill="#b5ffea"/>
  <path id="Path_616" data-name="Path 616" d="M154.051,33.671h-2.679V29.18a6.188,6.188,0,0,0-2.283-4.8V9.541a2.749,2.749,0,0,1,5.5,0V25.058a1.333,1.333,0,1,0,2.666,0V5.415a2.749,2.749,0,1,1,5.5,0V25.058a1.333,1.333,0,1,0,2.666,0V11.234a2.749,2.749,0,0,1,5.5,0V25.058a1.333,1.333,0,1,0,2.666,0V13.031a2.749,2.749,0,0,1,5.5,0v9.058a1.333,1.333,0,1,0,2.666,0V13.031a5.41,5.41,0,0,0-8.756-4.256,5.407,5.407,0,0,0-7.571-2.2V5.415a5.415,5.415,0,0,0-10.8-.522,5.412,5.412,0,0,0-8.189,4.648V23.109a6.2,6.2,0,0,0-1.249-.126h-2.14a3.716,3.716,0,0,0-3.712,3.712v19.65a10.577,10.577,0,0,0,9.231,10.477v5.755a3.616,3.616,0,0,0-2.914,3.542v5.3a3.614,3.614,0,0,0,2.278,3.353v5.174a1.333,1.333,0,0,0,2.666,0V75.028h7.383a1.333,1.333,0,0,0,0-2.666H149.25a.946.946,0,0,1-.945-.945v-5.3a.946.946,0,0,1,.945-.945h8.637a1.333,1.333,0,0,0,0-2.666H151.22v-5.6h.024a1.333,1.333,0,0,0,0-2.666h-1.357a7.907,7.907,0,0,1-7.9-7.9V26.694a1.047,1.047,0,0,1,1.046-1.046h2.14a3.536,3.536,0,0,1,3.532,3.532V40.954a1.333,1.333,0,1,0,2.666,0V36.337h2.679a4.133,4.133,0,0,1,4.129,4.129v5.429a1.333,1.333,0,1,0,2.666,0V40.466A6.8,6.8,0,0,0,154.051,33.671Z" transform="translate(-115.821 0)" fill="#b5ffea"/>
  <path id="Path_617" data-name="Path 617" d="M189.007,474.223a1.333,1.333,0,0,0-1.333,1.333v4.052a1.333,1.333,0,1,0,2.666,0v-4.052A1.333,1.333,0,0,0,189.007,474.223Z" transform="translate(-155.577 -389.931)" fill="#b5ffea"/>
</svg>
